{
  "accessors": [
    {
      "bufferView": 2,
      "componentType": 5126,
      "count": 6035,
      "max": [
        0.47028928995132446,
        0.18774040043354034,
        0.77922201156616211
      ],
      "min": [
        -0.47028928995132446,
        -0.044219471514225006,
        -0.40689080953598022
      ],
      "type": "VEC3"
    },
    {
      "bufferView": 2,
      "byteOffset": 72420,
      "componentType": 5126,
      "count": 6035,
      "max": [
        0.99950003623962402,
        0.99918705224990845,
        0.98484838008880615
      ],
      "min": [
        -0.99949997663497925,
        -0.99889874458312988,
        -0.99879777431488037
      ],
      "type": "VEC3"
    },
    {
      "bufferView": 3,
      "componentType": 5126,
      "count": 6035,
      "max": [
        0.99913686513900757,
        0.99997979402542114,
        0.99971044063568115,
        1
      ],
      "min": [
        -0.99859297275543213,
        -0.99891060590744019,
        -0.99730074405670166,
        -1
      ],
      "type": "VEC4"
    },
    {
      "bufferView": 1,
      "componentType": 5126,
      "count": 6035,
      "max": [
        0.99867397546768188,
        0.99863260984420776
      ],
      "min": [
        0.0013259770348668098,
        0.0013673979556187987
      ],
      "type": "VEC2"
    },
    {
      "bufferView": 0,
      "componentType": 5125,
      "count": 30114,
      "max": [
        6034
      ],
      "min": [
        0
      ],
      "type": "SCALAR"
    },
    {
      "bufferView": 2,
      "byteOffset": 144840,
      "componentType": 5126,
      "count": 9524,
      "max": [
        0.4171614944934845,
        0.084584489464759827,
        0.70500457286834717
      ],
      "min": [
        -0.4171614944934845,
        -0.20098510384559631,
        -0.5873832106590271
      ],
      "type": "VEC3"
    },
    {
      "bufferView": 2,
      "byteOffset": 259128,
      "componentType": 5126,
      "count": 9524,
      "max": [
        0.99910271167755127,
        0.99999958276748657,
        0.98934954404830933
      ],
      "min": [
        -0.99910271167755127,
        -0.99939364194869995,
        -0.99425113201141357
      ],
      "type": "VEC3"
    },
    {
      "bufferView": 3,
      "byteOffset": 96560,
      "componentType": 5126,
      "count": 9524,
      "max": [
        0.99998217821121216,
        0.99976736307144165,
        0.8960074782371521,
        1
      ],
      "min": [
        -0.91214817762374878,
        -0.99867367744445801,
        -0.99386733770370483,
        -1
      ],
      "type": "VEC4"
    },
    {
      "bufferView": 1,
      "byteOffset": 48280,
      "componentType": 5126,
      "count": 9524,
      "max": [
        0.99756401777267456,
        0.89195001125335693
      ],
      "min": [
        0.0013259770348668098,
        0.0013673979556187987
      ],
      "type": "VEC2"
    },
    {
      "bufferView": 0,
      "byteOffset": 120456,
      "componentType": 5125,
      "count": 51426,
      "max": [
        9523
      ],
      "min": [
        0
      ],
      "type": "SCALAR"
    }
  ],
  "asset": {
    "extras": {
      "author": "Virtual Reality Models (https://sketchfab.com/dqh18)",
      "license": "CC-BY-4.0 (http://creativecommons.org/licenses/by/4.0/)",
      "source": "https://sketchfab.com/models/fed87eb9411b4a1280c0997a710769b8",
      "title": "Free Shield"
    },
    "generator": "Sketchfab-3.26.3",
    "version": "2.0"
  },
  "bufferViews": [
    {
      "buffer": 0,
      "byteLength": 326160,
      "byteOffset": 0,
      "name": "floatBufferViews",
      "target": 34963
    },
    {
      "buffer": 0,
      "byteLength": 124472,
      "byteOffset": 326160,
      "byteStride": 8,
      "name": "floatBufferViews",
      "target": 34962
    },
    {
      "buffer": 0,
      "byteLength": 373416,
      "byteOffset": 450632,
      "byteStride": 12,
      "name": "floatBufferViews",
      "target": 34962
    },
    {
      "buffer": 0,
      "byteLength": 248944,
      "byteOffset": 824048,
      "byteStride": 16,
      "name": "floatBufferViews",
      "target": 34962
    }
  ],
  "buffers": [
    {
      "byteLength": 1072992,
      "uri": "scene.bin"
    }
  ],
  "images": [
    {
      "uri": "textures/material_0_baseColor.png"
    },
    {
      "uri": "textures/material_0_normal.png"
    },
    {
      "uri": "textures/material_0_metallicRoughness.png"
    }
  ],
  "materials": [
    {
      "doubleSided": true,
      "name": "material_0",
      "normalTexture": {
        "index": 1,
        "scale": 0.70293445119999998,
        "texCoord": 0
      },
      "occlusionTexture": {
        "index": 2,
        "strength": 1,
        "texCoord": 0
      },
      "pbrMetallicRoughness": {
        "baseColorFactor": [
          1,
          1,
          1,
          1
        ],
        "baseColorTexture": {
          "index": 0,
          "texCoord": 0
        },
        "metallicFactor": 1,
        "metallicRoughnessTexture": {
          "index": 2,
          "texCoord": 0
        },
        "roughnessFactor": 1
      }
    }
  ],
  "meshes": [
    {
      "primitives": [
        {
          "attributes": {
            "NORMAL": 1,
            "POSITION": 0,
            "TANGENT": 2,
            "TEXCOORD_0": 3
          },
          "indices": 4,
          "material": 0,
          "mode": 4
        }
      ]
    },
    {
      "primitives": [
        {
          "attributes": {
            "NORMAL": 6,
            "POSITION": 5,
            "TANGENT": 7,
            "TEXCOORD_0": 8
          },
          "indices": 9,
          "material": 0,
          "mode": 4
        }
      ]
    }
  ],
  "nodes": [
    {
      "children": [
        1
      ],
      "name": "RootNode (gltf orientation matrix)",
      "rotation": [
        -0.70710678118654746,
        -0,
        -0,
        0.70710678118654757
      ]
    },
    {
      "children": [
        2
      ],
      "name": "RootNode (model correction matrix)"
    },
    {
      "children": [
        3,
        4
      ],
      "name": "wp1l.exported.obj.cleaner.materialmerger.gles"
    },
    {
      "mesh": 0,
      "name": ""
    },
    {
      "mesh": 1,
      "name": ""
    }
  ],
  "samplers": [
    {
      "magFilter": 9729,
      "minFilter": 9987,
      "wrapS": 10497,
      "wrapT": 10497
    }
  ],
  "scene": 0,
  "scenes": [
    {
      "name": "OSG_Scene",
      "nodes": [
        0
      ]
    }
  ],
  "textures": [
    {
      "sampler": 0,
      "source": 0
    },
    {
      "sampler": 0,
      "source": 1
    },
    {
      "sampler": 0,
      "source": 2
    }
  ]
}

